<svg id="Layer_1" data-name="Layer 1" xmlns="http://www.w3.org/2000/svg" viewBox="0 0 600 301.76"><defs><style>.cls-1{fill:#2758a5;}.cls-2{fill:#6b8ac6;}</style></defs><path class="cls-1" d="M116.06,193.44q-12,0-20.71-4.63a33.29,33.29,0,0,1-13.43-12.59,34.15,34.15,0,0,1-4.7-17.67V113.79h23.51v44.15a14.71,14.71,0,0,0,2,7.51,15.13,15.13,0,0,0,5.38,5.46A15,15,0,0,0,115.9,173a14.64,14.64,0,0,0,7.66-2.05,15.16,15.16,0,0,0,5.39-5.46,14.71,14.71,0,0,0,2-7.51V113.79h23.52v44.76a35,35,0,0,1-4.55,17.67,32.54,32.54,0,0,1-13.13,12.59Q128.2,193.43,116.06,193.44Z"/><path class="cls-1" d="M172,191.62V146.86a33.68,33.68,0,0,1,4.7-17.6,34.09,34.09,0,0,1,13.42-12.59q8.73-4.69,20.71-4.7,12.13,0,20.71,4.7a33.25,33.25,0,0,1,13.12,12.59,34.54,34.54,0,0,1,4.56,17.6v44.76H225.74V147.47a14.78,14.78,0,0,0-2-7.51,15,15,0,0,0-5.39-5.46,14.55,14.55,0,0,0-7.66-2.05,14.83,14.83,0,0,0-7.81,2.05,15,15,0,0,0-5.39,5.46,14.78,14.78,0,0,0-2,7.51v44.15Z"/><path class="cls-1" d="M278.69,105a14,14,0,0,1-13.81-13.81A13.52,13.52,0,0,1,269,81.4a13.39,13.39,0,0,1,19.42,0,13.51,13.51,0,0,1,4.09,9.78A14,14,0,0,1,278.69,105Zm-11.84,86.63V113.79h23.67v77.83Z"/><path class="cls-2" d="M366.45,115a36.07,36.07,0,0,1,13.05,8.73,39.07,39.07,0,0,1,8.26,13.42A47.91,47.91,0,0,1,390.65,154a42.62,42.62,0,0,1-4.78,20.63,35.62,35.62,0,0,1-13.13,13.81,37,37,0,0,1-19.41,5,31.6,31.6,0,0,1-8.88-1.22,26,26,0,0,1-7.58-3.56,22.57,22.57,0,0,1-5.69-5.54h-.46v41.42H307.21v-70.4q0-12.73,5.15-22.3a35.79,35.79,0,0,1,14.57-14.71q9.4-5.16,22-5.16A47.38,47.38,0,0,1,366.45,115Zm-27,19.95a17.06,17.06,0,0,0-6.14,7.28,24.6,24.6,0,0,0-2.12,10.4,24,24,0,0,0,2.12,10.31,17.1,17.1,0,0,0,6.14,7.21,16.84,16.84,0,0,0,9.49,2.65,16.43,16.43,0,0,0,9.4-2.65,17.76,17.76,0,0,0,6.14-7.21,23.33,23.33,0,0,0,2.21-10.31,23.89,23.89,0,0,0-2.21-10.4,17.71,17.71,0,0,0-6.14-7.28,16.43,16.43,0,0,0-9.4-2.65A16.84,16.84,0,0,0,339.44,135Z"/><path class="cls-2" d="M404.6,191.62V80.87h23.52V191.62Z"/><path class="cls-2" d="M472.57,222.41V192.07a38.17,38.17,0,0,1-14.57-6.9,31.53,31.53,0,0,1-9.25-11.68,35.18,35.18,0,0,1-3.19-14.94V113.79h23.52v44a15.09,15.09,0,0,0,2,7.58,14.85,14.85,0,0,0,5.39,5.54A14.61,14.61,0,0,0,484.1,173a14.72,14.72,0,0,0,13.19-7.59,15.1,15.1,0,0,0,2-7.58v-44h23.51v44.76a35.48,35.48,0,0,1-3.11,14.86,31.85,31.85,0,0,1-9.1,11.68,35.23,35.23,0,0,1-14.49,6.83v30.49Z"/></svg>