<svg width="183" height="41" viewBox="0 0 183 41" fill="none" xmlns="http://www.w3.org/2000/svg">
<path d="M65.3004 14.83C65.1841 13.9125 64.9049 13.1157 64.4628 12.4396C63.5554 10.9909 62.0546 10.2666 59.9606 10.2666C58.2155 10.2666 56.9475 10.6771 56.1564 11.498C55.4351 12.2706 55.0744 13.3209 55.0744 14.6489C55.0744 16.1218 55.47 17.1358 56.2611 17.6912C57.0522 18.2465 58.1574 18.5845 59.5767 18.7053C60.9262 18.826 62.0663 19.0192 62.997 19.2847C63.9277 19.5262 64.7071 19.8642 65.3353 20.2988C66.9873 21.3612 67.8133 23.0272 67.8133 25.2969C67.8133 26.1902 67.6388 27.0353 67.2898 27.8321C66.964 28.6289 66.4871 29.3411 65.8588 29.9689C64.4395 31.4176 62.4967 32.142 60.0304 32.142C57.564 32.142 55.5747 31.4297 54.1321 30.0051C52.8989 28.822 52.1544 27.2285 51.8984 25.2244H54.3066C54.516 26.4317 55.0046 27.4216 55.7725 28.1943C56.773 29.1601 58.2039 29.643 60.0653 29.643C61.6475 29.643 62.9272 29.2446 63.9044 28.4478C64.9049 27.6269 65.4051 26.5765 65.4051 25.2969C65.4051 24.4759 65.2423 23.7999 64.9165 23.2687C64.614 22.7133 64.0207 22.2667 63.1366 21.9286C62.2524 21.5906 60.996 21.3491 59.3673 21.2043C54.8999 20.7938 52.6663 18.6087 52.6663 14.6489C52.6663 13.659 52.8175 12.7535 53.12 11.9326C53.4457 11.0875 53.8994 10.3632 54.4811 9.75954C55.7608 8.43157 57.5757 7.76758 59.9257 7.76758H59.9606C62.3571 7.79172 64.1836 8.47986 65.44 9.83198C66.7197 11.16 67.4759 12.838 67.7086 14.8662H65.3004V14.83ZM72.4412 24.2103C72.7204 25.7556 73.4533 27.0474 74.64 28.0856C75.8266 29.0997 77.1877 29.6067 78.7234 29.6067C79.8635 29.6067 80.9105 29.3291 81.8645 28.7737C82.8184 28.2184 83.5862 27.4578 84.1679 26.492L86.2271 27.7234C85.436 29.0514 84.3773 30.1138 83.0511 30.9106C81.7249 31.7074 80.2823 32.1058 78.7234 32.1058C77.1645 32.1058 75.6754 31.6953 74.3258 30.8744C72.9763 30.0534 71.906 28.9428 71.1149 27.5423C70.3239 26.1419 69.9283 24.6208 69.9283 22.9789C69.9283 21.3371 70.3239 19.7918 71.1149 18.4155C71.906 17.0151 72.9763 15.9044 74.3258 15.0835C75.6754 14.2626 77.1412 13.8521 78.7234 13.8521C80.3056 13.8521 81.7714 14.2626 83.1209 15.0835C84.4704 15.9044 85.5407 17.0151 86.3318 18.4155C87.1229 19.7918 87.5184 21.3129 87.5184 22.9789C87.5184 23.2687 87.4952 23.6791 87.4486 24.2103H72.4412ZM78.7234 16.3149C77.6996 16.3149 76.6991 16.5684 75.7219 17.0755C74.7447 17.5584 73.9536 18.2344 73.3486 19.1037C72.7437 19.9487 72.4412 20.8662 72.4412 21.8562H85.0056C85.0056 20.8662 84.7031 19.9487 84.0981 19.1037C83.4932 18.2344 82.7021 17.5584 81.7249 17.0755C80.7709 16.5684 79.7704 16.3149 78.7234 16.3149ZM93.0322 7.84001V31.9247H90.6589V7.84001H93.0322ZM98.8944 7.84001V31.9247H96.5212V7.84001H98.8944ZM115.436 14.83C115.32 13.9125 115.041 13.1157 114.599 12.4396C113.691 10.9909 112.191 10.2666 110.096 10.2666C108.351 10.2666 107.083 10.6771 106.292 11.498C105.571 12.2706 105.21 13.3209 105.21 14.6489C105.21 16.1218 105.606 17.1358 106.397 17.6912C107.188 18.2465 108.293 18.5845 109.713 18.7053C111.062 18.826 112.202 19.0192 113.133 19.2847C114.064 19.5262 114.843 19.8642 115.471 20.2988C117.123 21.3612 117.949 23.0272 117.949 25.2969C117.949 26.1902 117.775 27.0353 117.426 27.8321C117.1 28.6289 116.623 29.3411 115.995 29.9689C114.575 31.4176 112.633 32.142 110.166 32.142C107.7 32.142 105.711 31.4297 104.268 30.0051C103.035 28.822 102.29 27.2285 102.034 25.2244H104.443C104.652 26.4317 105.141 27.4216 105.908 28.1943C106.909 29.1601 108.34 29.643 110.201 29.643C111.783 29.643 113.063 29.2446 114.04 28.4478C115.041 27.6269 115.541 26.5765 115.541 25.2969C115.541 24.4759 115.378 23.7999 115.052 23.2687C114.75 22.7133 114.157 22.2667 113.272 21.9286C112.388 21.5906 111.132 21.3491 109.503 21.2043C105.036 20.7938 102.802 18.6087 102.802 14.6489C102.802 13.659 102.953 12.7535 103.256 11.9326C103.582 11.0875 104.035 10.3632 104.617 9.75954C105.897 8.43157 107.712 7.76758 110.062 7.76758H110.096C112.493 7.79172 114.32 8.47986 115.576 9.83198C116.856 11.16 117.612 12.838 117.845 14.8662H115.436V14.83ZM135.561 28.8824C134.723 29.8965 133.723 30.6933 132.559 31.2728C131.419 31.8281 130.186 32.1058 128.86 32.1058C127.278 32.1058 125.812 31.6953 124.462 30.8744C123.113 30.0534 122.043 28.9428 121.251 27.5423C120.46 26.1419 120.065 24.6208 120.065 22.9789C120.065 21.3371 120.46 19.8159 121.251 18.4155C122.043 17.0151 123.113 15.9044 124.462 15.0835C125.812 14.2626 127.278 13.8521 128.86 13.8521C130.186 13.8521 131.419 14.1419 132.559 14.7213C133.723 15.2767 134.723 16.0614 135.561 17.0755L133.432 18.3431C132.85 17.7153 132.164 17.2324 131.373 16.8944C130.582 16.5322 129.744 16.3511 128.86 16.3511C127.697 16.3511 126.626 16.6529 125.649 17.2566C124.672 17.836 123.892 18.6328 123.311 19.6469C122.729 20.661 122.438 21.7717 122.438 22.9789C122.438 24.1862 122.729 25.2969 123.311 26.311C123.892 27.325 124.672 28.1339 125.649 28.7375C126.626 29.317 127.697 29.6067 128.86 29.6067C129.744 29.6067 130.582 29.4377 131.373 29.0997C132.164 28.7375 132.85 28.2425 133.432 27.6148L135.561 28.8824ZM154.936 14.2867V31.9247H152.527V28.5927C150.922 30.9347 148.781 32.1058 146.106 32.1058C144.5 32.1058 143.023 31.7074 141.673 30.9106C140.324 30.0896 139.253 28.979 138.462 27.5786C137.694 26.1782 137.311 24.657 137.311 23.0152C137.311 21.3733 137.694 19.8159 138.462 18.4155C139.253 17.0151 140.324 15.9165 141.673 15.1197C143.023 14.2988 144.5 13.8883 146.106 13.8883C147.711 13.8883 149.107 14.2505 150.154 14.9749C151.224 15.6751 152.016 16.4356 152.527 17.2566V14.2867H154.936ZM146.106 29.643C147.269 29.643 148.339 29.3532 149.317 28.7737C150.294 28.1701 151.062 27.3613 151.62 26.3472C152.202 25.3331 152.493 24.2224 152.493 23.0152C152.493 21.8079 152.202 20.6972 151.62 19.6831C151.062 18.6449 150.294 17.836 149.317 17.2566C148.339 16.6529 147.269 16.3511 146.106 16.3511C144.942 16.3511 143.86 16.6529 142.86 17.2566C141.883 17.836 141.103 18.6449 140.521 19.6831C139.963 20.6972 139.684 21.8079 139.684 23.0152C139.684 24.2224 139.963 25.3331 140.521 26.3472C141.103 27.3613 141.883 28.1701 142.86 28.7737C143.86 29.3532 144.942 29.643 146.106 29.643ZM160.79 7.84001V31.9247H158.416V7.84001H160.79ZM166.442 24.2103C166.722 25.7556 167.455 27.0474 168.641 28.0856C169.828 29.0997 171.189 29.6067 172.725 29.6067C173.865 29.6067 174.912 29.3291 175.866 28.7737C176.82 28.2184 177.588 27.4578 178.169 26.492L180.228 27.7234C179.437 29.0514 178.379 30.1138 177.052 30.9106C175.726 31.7074 174.284 32.1058 172.725 32.1058C171.166 32.1058 169.677 31.6953 168.327 30.8744C166.978 30.0534 165.907 28.9428 165.116 27.5423C164.325 26.1419 163.93 24.6208 163.93 22.9789C163.93 21.3371 164.325 19.7918 165.116 18.4155C165.907 17.0151 166.978 15.9044 168.327 15.0835C169.677 14.2626 171.142 13.8521 172.725 13.8521C174.307 13.8521 175.773 14.2626 177.122 15.0835C178.472 15.9044 179.542 17.0151 180.333 18.4155C181.124 19.7918 181.52 21.3129 181.52 22.9789C181.52 23.2687 181.496 23.6791 181.45 24.2103H166.442ZM172.725 16.3149C171.701 16.3149 170.7 16.5684 169.723 17.0755C168.746 17.5584 167.955 18.2344 167.35 19.1037C166.745 19.9487 166.442 20.8662 166.442 21.8562H179.007C179.007 20.8662 178.704 19.9487 178.099 19.1037C177.494 18.2344 176.703 17.5584 175.726 17.0755C174.772 16.5684 173.772 16.3149 172.725 16.3149Z" fill="#EFEFEF"/>
<path d="M40.6044 8.32229C40.4834 6.25608 39.555 4.35889 37.9885 2.98202C36.4221 1.60455 34.4048 0.912791 32.3119 1.03291C30.2172 1.15183 28.2959 2.06813 26.9011 3.61401L22.9444 7.99754L22.4599 8.53417L18.4003 13.03L17.9146 13.5672L16.785 14.8185C16.6128 15.0093 16.7286 15.3219 16.9799 15.3437L22.3657 15.8109C22.4576 15.8187 22.5477 15.7831 22.6106 15.7131L23.9874 14.1883L24.4731 13.6505H24.4737L28.0958 9.63518H28.0964L28.5019 9.18548L30.5977 6.86393C31.1142 6.29411 31.8239 5.95427 32.5969 5.91141C32.6539 5.90719 32.7109 5.90477 32.7691 5.90477C33.4799 5.90477 34.1576 6.1595 34.6933 6.63093C35.2715 7.13858 35.6153 7.83939 35.6601 8.60298C35.7048 9.36596 35.446 10.1012 34.9289 10.674C34.8579 10.7507 34.7747 10.8334 34.6933 10.9052L32.6877 12.6684C32.58 12.7632 32.548 12.9213 32.6103 13.0529L32.6632 13.1652C32.6714 13.1821 32.6801 13.1978 32.6865 13.2135C32.8901 13.6535 33.0524 14.1008 33.1699 14.5481C33.2408 14.827 33.285 15.0352 33.3211 15.2392L33.3787 15.6364L33.402 15.8604L33.5747 17.7908C33.5974 18.0425 33.8836 18.1638 34.0692 18.0002L37.9938 14.5499C38.2206 14.3489 38.4347 14.1376 38.6284 13.9227C40.0238 12.3768 40.7248 10.3879 40.6044 8.32229Z" fill="#75FF00"/>
<path d="M19.9678 22.213C19.9864 22.388 20.1859 22.4707 20.3156 22.3566L24.4857 18.6896C24.5392 18.6425 24.5672 18.5707 24.5596 18.4983L24.527 18.185C24.4485 17.4413 23.847 16.8552 23.0914 16.79L21.7384 16.6729L15.5877 16.1399H15.5871L7.68495 15.456C7.21379 15.4155 6.78858 15.1952 6.48378 14.8373C6.18014 14.4799 6.0353 14.0254 6.07834 13.5552C6.11848 13.0922 6.34068 12.6703 6.70191 12.3715C7.02358 12.1053 7.42087 11.964 7.83503 11.964C7.88854 11.964 7.94089 11.9646 7.99383 11.9695L16.9157 12.8785L17.2001 12.9075C17.2659 12.9141 17.3304 12.8888 17.3758 12.8393L21.0695 8.7479C21.1899 8.61511 21.1102 8.39659 20.9357 8.37849L8.40682 7.0982H8.37774C6.60767 6.95695 4.88298 7.4984 3.51835 8.62778C2.14151 9.76682 1.29806 11.3676 1.14392 13.1284C0.9857 14.8946 1.53365 16.6156 2.68713 17.9743C3.8406 19.3337 5.46118 20.1685 7.24985 20.3236L11.4787 20.6912H11.4793L17.6288 21.2242L19.0813 21.3504C19.549 21.392 19.9201 21.7536 19.9684 22.2124L19.9678 22.213Z" fill="#EA5CF6"/>
<path d="M34.0366 32.6027L32.8599 19.4214L32.8302 19.0881L32.5644 16.1195L32.5411 15.8956L32.4835 15.4984C32.448 15.2944 32.4038 15.0861 32.3323 14.8072C32.2154 14.36 32.0525 13.9127 31.8495 13.4726C31.8431 13.4569 31.8344 13.4406 31.8262 13.4249C31.4278 12.5793 30.8856 11.8139 30.2237 11.1619C29.8578 10.7961 29.4605 10.4702 29.0341 10.1829C28.9446 10.1225 28.8253 10.1388 28.752 10.2203L25.7098 13.5903C25.6039 13.7074 25.6435 13.8952 25.7843 13.961C25.7854 13.961 25.786 13.9622 25.7872 13.9622C26.1234 14.1161 26.4398 14.3364 26.7121 14.6086C26.979 14.8712 27.1937 15.1748 27.3461 15.5032C27.4275 15.6825 27.4933 15.8612 27.534 16.0163C27.5526 16.0924 27.5799 16.2004 27.5968 16.2922L27.6189 16.4394C27.6195 16.4443 27.6201 16.4491 27.6206 16.4539L27.6759 17.072L28.2186 23.1409L29.1034 33.0331C29.1766 33.8444 28.5647 34.5645 27.7381 34.6369C26.9302 34.707 26.199 34.1142 26.1152 33.3114L25.476 27.2063C25.4568 27.0222 25.2468 26.9347 25.1101 27.0548L20.9615 30.7025C20.9051 30.752 20.876 30.8275 20.8842 30.9041L21.1895 33.8142C21.5304 37.0695 24.351 39.5299 27.609 39.5299C27.7969 39.5299 27.9865 39.5209 28.1767 39.5052C31.7238 39.1937 34.3525 36.0947 34.0378 32.6027H34.0366Z" fill="#EA5CF6"/>
<path d="M26.9184 18.3827C26.8958 18.1322 26.6107 18.0109 26.4258 18.1738L25.2362 19.2187L24.6912 19.6986L20.1319 23.7079L19.5869 24.1872L9.97573 32.6355C9.56855 32.9935 8.9415 32.9584 8.57794 32.5558C8.24348 32.1858 8.24348 31.628 8.57736 31.2586L16.4644 22.5212C16.636 22.331 16.5203 22.0195 16.2707 21.9978L10.8826 21.5306C10.7913 21.5228 10.7011 21.5584 10.6389 21.6278L4.88367 28.0033C2.87279 30.2258 2.87221 33.5802 4.88134 35.8069C6.05344 37.1047 7.68448 37.7663 9.32134 37.7663C10.7284 37.7663 12.1402 37.2774 13.271 36.2832L20.2169 30.1775L20.7613 29.6995L25.3206 25.6902L25.8644 25.2121L27.2896 23.9608C27.3646 23.895 27.4036 23.7954 27.3943 23.6946L26.919 18.3827H26.9184Z" fill="#75FF00"/>
</svg>
