<svg width="246" height="62" viewBox="0 0 246 62" fill="none" xmlns="http://www.w3.org/2000/svg">
<path d="M4.75126 13.2513C4.58397 13.084 4.42875 12.905 4.2868 12.7157L0 7H1.21618C1.73555 7 2.25176 7.08092 2.74622 7.23986L14.355 10.9713C15.4436 11.3212 16.4641 11.8552 17.3722 12.5501L22.025 16.1107C22.5558 16.5169 22.9998 17.0254 23.3307 17.6062L26.0162 22.3194C26.2241 22.6844 26.4772 23.0217 26.7695 23.3234L27.5823 24.1622C29.0019 25.6274 31.2385 25.934 33 24.9048L34.4955 23.9861C35.1523 23.5826 35.9081 23.369 36.6789 23.369C37.2211 23.369 37.7581 23.4747 38.2598 23.6802L39.3438 24.1241C39.7665 24.2972 40.1107 24.6196 40.3112 25.03L40.4187 25.2501C40.4722 25.3597 40.5 25.48 40.5 25.602C40.5 25.8114 40.5819 26.0124 40.7282 26.1622L41 26.4405L40.8114 26.5015C40.4908 26.6053 40.1816 26.7412 39.8883 26.9072L38.3219 27.794C38.1084 27.9148 37.913 28.0653 37.7415 28.2408C37.2661 28.7275 37 29.3809 37 30.0613V30.9599C37 31.6495 37.3862 32.281 38 32.5952L44.8125 37.0504C45.2678 37.3481 45.6714 37.7182 46.0075 38.1459L49.5471 42.6508C50.5027 43.867 51.1631 45.2883 51.4765 46.803L53.7926 57.9976C53.9305 58.6641 54 59.343 54 60.0236V61L48.158 56.9556C47.7221 56.6538 47.337 56.2846 47.017 55.8618L40.1789 46.8257C39.7319 46.235 39.1592 45.751 38.5022 45.4087L32.0859 42.0658C31.3725 41.6941 30.58 41.5 29.7756 41.5H28.5358C27.8525 41.5 27.1765 41.64 26.5494 41.9115L22.6412 43.6034C22.2158 43.7875 21.8181 44.03 21.4594 44.3237L19.8383 45.6515C19.6132 45.8359 19.4046 46.0395 19.2149 46.2602L16 50L15.5865 48.3166C15.2167 46.8107 14.169 45.5617 12.7505 44.9353L9.5 43.5L16.2211 40.5971C16.7367 40.3745 17.2111 40.0665 17.6243 39.6862L18.4428 38.933C19.4098 38.0431 19.8427 36.7135 19.585 35.4249C19.5285 35.1426 19.4398 34.8676 19.3207 34.6055L17 29.5L14.3793 23.3851C14.1287 22.8004 13.7689 22.2689 13.3191 21.8191L4.75126 13.2513Z" fill="white"/>
<path d="M89.05 49.45C87.6833 49.45 86.35 49.25 85.05 48.85C83.7667 48.45 82.4083 47.825 80.975 46.975L79 49H77.975L77.05 36.325L78.4 36.05C79.4 39.9667 80.7167 42.8083 82.35 44.575C84 46.3417 86.175 47.225 88.875 47.225C91.1417 47.225 92.9333 46.6833 94.25 45.6C95.5667 44.5 96.225 43.0167 96.225 41.15C96.225 39.6833 95.7667 38.375 94.85 37.225C93.95 36.0583 92.4667 34.8917 90.4 33.725L86.575 31.7C83.4583 30.0167 81.225 28.3417 79.875 26.675C78.525 25.0083 77.85 23.0667 77.85 20.85C77.85 18.85 78.3417 17.0667 79.325 15.5C80.3083 13.9167 81.65 12.675 83.35 11.775C85.0667 10.8583 86.9917 10.4 89.125 10.4C92.0417 10.4 94.5833 11.425 96.75 13.475L98.275 10.875H99.35L99.8 21.8H98.375C97.5917 18.6833 96.4583 16.3833 94.975 14.9C93.5083 13.4 91.6333 12.65 89.35 12.65C87.5 12.65 86.0333 13.1417 84.95 14.125C83.8833 15.1083 83.35 16.4583 83.35 18.175C83.35 19.725 83.8583 21.1083 84.875 22.325C85.9083 23.5417 87.6417 24.7917 90.075 26.075L93.8 28.075C96.35 29.425 98.1917 30.925 99.325 32.575C100.475 34.225 101.05 36.1167 101.05 38.25C101.05 40.3667 100.517 42.275 99.45 43.975C98.4 45.6583 96.9667 46.9917 95.15 47.975C93.35 48.9583 91.3167 49.45 89.05 49.45ZM105.432 49V47.9L109.232 47.125V26.75L105.507 25.425V24.65L113.807 22.275H114.357V47.125L118.107 47.9V49H105.432ZM111.757 17.025C110.74 17.025 109.932 16.7 109.332 16.05C108.732 15.4 108.432 14.6417 108.432 13.775C108.432 12.825 108.732 12.025 109.332 11.375C109.932 10.725 110.74 10.4 111.757 10.4C112.79 10.4 113.607 10.725 114.207 11.375C114.823 12.025 115.132 12.825 115.132 13.775C115.132 14.6417 114.823 15.4 114.207 16.05C113.607 16.7 112.79 17.025 111.757 17.025ZM137.516 24.125C137.799 23.3083 138.174 22.475 138.641 21.625C139.108 20.7583 139.691 20.025 140.391 19.425C141.091 18.825 141.916 18.525 142.866 18.525C143.649 18.525 144.333 18.75 144.916 19.2C145.499 19.65 145.791 20.2667 145.791 21.05C145.791 21.7167 145.566 22.2917 145.116 22.775C144.666 23.2417 144.108 23.475 143.441 23.475C142.958 23.475 142.599 23.3667 142.366 23.15C142.133 22.9333 141.916 22.7167 141.716 22.5C141.533 22.2833 141.233 22.175 140.816 22.175C140.366 22.175 139.958 22.4667 139.591 23.05C139.224 23.6167 138.966 24.2667 138.816 25L137.516 24.125ZM132.141 38.975C133.408 38.975 134.391 38.5667 135.091 37.75C135.808 36.9333 136.308 35.925 136.591 34.725C136.874 33.5083 137.016 32.3333 137.016 31.2C137.016 30.4833 136.949 29.7083 136.816 28.875C136.699 28.025 136.474 27.225 136.141 26.475C135.824 25.7083 135.358 25.0833 134.741 24.6C134.141 24.1 133.366 23.85 132.416 23.85C131.416 23.85 130.599 24.1167 129.966 24.65C129.333 25.1667 128.841 25.8417 128.491 26.675C128.141 27.4917 127.899 28.35 127.766 29.25C127.633 30.15 127.566 30.975 127.566 31.725C127.566 32.675 127.683 33.7167 127.916 34.85C128.149 35.9667 128.591 36.9333 129.241 37.75C129.908 38.5667 130.874 38.975 132.141 38.975ZM132.166 40.625C130.399 40.625 129.049 40.8333 128.116 41.25C127.183 41.65 126.716 42.275 126.716 43.125C126.716 43.725 127.133 44.225 127.966 44.625C128.816 45.0083 130.458 45.3833 132.891 45.75L136.466 46.375C139.366 46.825 141.499 47.5917 142.866 48.675C144.249 49.7417 144.941 51.1917 144.941 53.025C144.941 54.5417 144.516 55.8583 143.666 56.975C142.816 58.0917 141.674 59.0083 140.241 59.725C138.824 60.4583 137.241 61 135.491 61.35C133.741 61.7 131.966 61.875 130.166 61.875C128.849 61.875 127.558 61.75 126.291 61.5C125.024 61.2667 123.874 60.8917 122.841 60.375C121.824 59.8583 121.008 59.1917 120.391 58.375C119.774 57.5583 119.466 56.5667 119.466 55.4C119.466 54.0333 119.974 52.8 120.991 51.7C122.008 50.6167 123.758 49.575 126.241 48.575L127.766 49.2C126.499 49.6833 125.508 50.4333 124.791 51.45C124.074 52.4833 123.716 53.5917 123.716 54.775C123.716 55.9917 124.058 56.9917 124.741 57.775C125.424 58.575 126.333 59.1667 127.466 59.55C128.616 59.95 129.858 60.15 131.191 60.15C132.808 60.15 134.349 59.9667 135.816 59.6C137.299 59.2333 138.508 58.6667 139.441 57.9C140.391 57.1333 140.866 56.15 140.866 54.95C140.866 54.3333 140.666 53.775 140.266 53.275C139.866 52.775 139.091 52.3 137.941 51.85C136.808 51.4167 135.133 50.9917 132.916 50.575L128.791 49.8C126.608 49.3833 124.966 48.7333 123.866 47.85C122.783 46.9667 122.241 45.9083 122.241 44.675C122.241 44.1083 122.416 43.5 122.766 42.85C123.133 42.2 123.833 41.5917 124.866 41.025C125.899 40.4417 127.424 40.0083 129.441 39.725L132.166 40.625ZM132.166 40.625C130.216 40.625 128.491 40.25 126.991 39.5C125.491 38.7333 124.316 37.6667 123.466 36.3C122.616 34.9167 122.191 33.3083 122.191 31.475C122.191 29.7083 122.624 28.1333 123.491 26.75C124.374 25.3667 125.574 24.275 127.091 23.475C128.608 22.675 130.324 22.275 132.241 22.275C134.141 22.275 135.858 22.6667 137.391 23.45C138.924 24.2167 140.141 25.2833 141.041 26.65C141.941 28.0167 142.391 29.575 142.391 31.325C142.391 32.975 141.966 34.5083 141.116 35.925C140.266 37.325 139.074 38.4583 137.541 39.325C136.008 40.1917 134.216 40.625 132.166 40.625ZM163.333 49V47.9L166.983 47.175V31.125C166.983 29.1417 166.583 27.6667 165.783 26.7C164.983 25.7167 163.692 25.225 161.908 25.225C159.292 25.225 157.117 26.4167 155.383 28.8V26.725C156.783 25.325 158.317 24.2333 159.983 23.45C161.65 22.6667 163.308 22.275 164.958 22.275C169.708 22.275 172.083 24.5167 172.083 29V47.175L175.783 47.9V49H163.333ZM147.058 49V47.9L150.808 47.125V26.8L147.108 25.425V24.7L155.108 22.275H155.658V26.7L155.908 26.95V47.125L159.583 47.9V49H147.058ZM185.182 49.525C183.399 49.525 181.949 48.9667 180.832 47.85C179.732 46.7333 179.182 45.2833 179.182 43.5C179.182 42.0333 179.632 40.7667 180.532 39.7C181.432 38.6333 182.882 37.7 184.882 36.9C186.899 36.0833 189.557 35.3417 192.857 34.675V30C192.857 27.8833 192.565 26.4 191.982 25.55C191.415 24.7 190.432 24.275 189.032 24.275C187.649 24.275 186.549 24.6083 185.732 25.275C184.915 25.9417 184.507 26.8417 184.507 27.975C184.507 28.2917 184.524 28.6083 184.557 28.925C184.607 29.225 184.632 29.5167 184.632 29.8C184.632 30.65 184.374 31.35 183.857 31.9C183.357 32.45 182.715 32.725 181.932 32.725C181.215 32.725 180.632 32.4917 180.182 32.025C179.749 31.5583 179.532 30.95 179.532 30.2C179.532 29.1167 179.999 28.0083 180.932 26.875C181.882 25.725 183.132 24.7417 184.682 23.925C186.749 22.825 188.99 22.275 191.407 22.275C192.857 22.275 194.082 22.5 195.082 22.95C196.099 23.4 196.832 24.0417 197.282 24.875C197.549 25.4417 197.724 26.1583 197.807 27.025C197.907 27.8917 197.957 29.3417 197.957 31.375V42.55C197.957 44.1667 198.082 45.2667 198.332 45.85C198.599 46.4333 199.09 46.725 199.807 46.725C200.624 46.725 201.415 46.2583 202.182 45.325L203.082 46.175C202.265 47.3583 201.432 48.2167 200.582 48.75C199.749 49.2667 198.774 49.525 197.657 49.525C196.307 49.525 195.257 49.1583 194.507 48.425C193.757 47.6917 193.257 46.575 193.007 45.075H192.857C191.907 46.4417 190.757 47.525 189.407 48.325C188.057 49.125 186.649 49.525 185.182 49.525ZM187.682 46.35C188.715 46.35 189.682 46.0833 190.582 45.55C191.482 45 192.24 44.2417 192.857 43.275V36.225C190.624 36.6583 188.865 37.1333 187.582 37.65C186.315 38.1667 185.415 38.8 184.882 39.55C184.365 40.2833 184.107 41.2083 184.107 42.325C184.107 43.6083 184.407 44.6 185.007 45.3C185.624 46 186.515 46.35 187.682 46.35ZM204.299 49V47.9L208.099 47.125V12.375L204.349 11.05V10.275L212.674 7.925H213.199V47.125L216.949 47.9V49H204.299ZM228.118 49.525C227.051 49.525 225.868 49.4167 224.568 49.2C223.285 49 222.16 48.7417 221.193 48.425L220.868 40.4H222.168C222.385 42.8667 223.018 44.7333 224.068 46C225.118 47.25 226.576 47.875 228.443 47.875C229.893 47.875 231.051 47.475 231.918 46.675C232.801 45.8583 233.243 44.7917 233.243 43.475C233.243 42.375 232.918 41.4333 232.268 40.65C231.618 39.85 230.493 39.0417 228.893 38.225L226.818 37.2C224.685 36.1333 223.16 35.0167 222.243 33.85C221.326 32.6667 220.868 31.2417 220.868 29.575C220.868 27.2417 221.676 25.4417 223.293 24.175C224.926 22.9083 227.251 22.275 230.268 22.275C231.435 22.275 232.56 22.3583 233.643 22.525C234.743 22.675 235.601 22.8833 236.218 23.15V30H235.068C234.585 25.9333 232.693 23.9 229.393 23.9C228.11 23.9 227.076 24.25 226.293 24.95C225.526 25.6333 225.143 26.5667 225.143 27.75C225.143 28.7833 225.476 29.6667 226.143 30.4C226.826 31.1333 227.976 31.8917 229.593 32.675L231.868 33.775C233.835 34.7417 235.251 35.8083 236.118 36.975C236.985 38.1417 237.418 39.6167 237.418 41.4C237.418 43.8833 236.585 45.8583 234.918 47.325C233.251 48.7917 230.985 49.525 228.118 49.525Z" fill="white"/>
</svg>
