<svg width="162" height="34" viewBox="0 0 162 34" fill="none" xmlns="http://www.w3.org/2000/svg">
<path d="M49.5492 1.4812H40.1426V33.1931H49.5492V1.4812Z" fill="#1C1938"/>
<path d="M61.313 13.5648V1.48134H51.9087V33.1933H61.313V24.5244L64.8303 21.2895L72.9114 33.1933H82.9579V31.6666L71.451 14.8663L82.9579 3.0076V1.48096H72.5L61.313 13.5648Z" fill="#1C1938"/>
<path d="M94.4403 1.4812H85.0337V33.1931H94.4403V1.4812Z" fill="#1C1938"/>
<path d="M109.641 1.48123H96.3081V33.1932H109.641C118.088 33.1932 124.436 28.7914 126.583 23.0426V11.6333C124.436 5.88489 118.09 1.48274 109.641 1.48274V1.48047V1.48123ZM116.993 20.6623C116.261 22.4136 113.75 24.6593 109.641 24.6593H105.714V10.0151H109.641C113.75 10.0151 116.261 12.2162 116.993 14.0121V20.6619V20.6623Z" fill="#1C1938"/>
<path d="M145.15 0.673584C136.704 0.673584 130.355 5.25541 128.209 10.9138V23.7597C130.355 29.5081 136.702 33.9999 145.15 33.9999C153.599 33.9999 159.946 29.5081 162.001 23.7597V10.9138C159.946 5.16539 153.554 0.673584 145.15 0.673584ZM152.454 21.424C151.677 23.1753 149.12 25.421 145.057 25.421C140.993 25.421 138.527 23.1753 137.704 21.424V13.2499C138.527 11.4985 141.039 9.25283 145.057 9.25283C149.074 9.25283 151.677 11.4985 152.454 13.2499V21.424Z" fill="#1C1938"/>
<path d="M37.4739 20.4332L36.8029 19.8972C36.0042 19.2595 34.9368 19.0518 33.9516 19.3419L14.2617 25.1414L10.9951 33.3454L12.957 33.3556L37.4739 20.4332Z" fill="#F28B2F"/>
<path d="M12.2125 0L0 31.659V33.2597H9.76963L11.4927 28.5024L14.6077 19.8335L18.4868 8.90417L22.3659 19.8335L25.4809 28.5024L27.1559 33.2597H37.069V31.659L24.9522 0H12.2106H12.2125Z" fill="#1C1938"/>
</svg>
