<svg width="83" height="24" viewBox="0 0 83 24" fill="none" xmlns="http://www.w3.org/2000/svg">
<path fill-rule="evenodd" clip-rule="evenodd" d="M5.0215 1.59101C6.04402 0.196232 10.4744 2.40369 14.861 5.2996C19.7544 8.5301 24.559 12.6643 24.0074 14.3062L24.0067 14.3086L24.0057 14.3127L24.0051 14.3161C23.7554 16.0742 18.7958 18.8827 13.9251 20.8519C9.37032 22.6933 4.90987 23.8419 4.26069 22.242C3.7508 20.9853 6.07593 19.2257 9.27242 17.5581C9.32295 17.5318 9.30329 17.4544 9.2463 17.4553C4.85632 17.5272 1.18128 17.0627 1.1137 15.5887C1.04911 14.1799 4.34371 13.2536 8.45001 12.7266C8.50746 12.7192 8.51467 12.6379 8.45938 12.6206C3.63196 11.109 -0.367431 9.27758 0.0858884 7.7806C0.536997 6.29092 4.90459 6.76 9.80762 7.91309C9.86408 7.92637 9.89923 7.85257 9.85339 7.81702C6.55056 5.25602 4.16784 2.75546 5.0215 1.59101ZM17.213 11.1049C17.213 11.4363 16.9444 11.7049 16.613 11.7049C16.2817 11.7049 16.013 11.4363 16.013 11.1049C16.013 10.7736 16.2817 10.5049 16.613 10.5049C16.9444 10.5049 17.213 10.7736 17.213 11.1049ZM17.6613 15.6868C17.0118 16.0204 16.687 16.1871 16.4051 16.1263C16.2714 16.0975 16.1472 16.035 16.0442 15.945C15.8272 15.7551 15.7671 15.395 15.6471 14.6747C15.497 13.7739 15.4219 13.3235 15.6087 13.0544C15.6965 12.9279 15.8186 12.8292 15.9606 12.7699C16.263 12.6437 16.6876 12.8116 17.5369 13.1474C18.5655 13.554 19.0798 13.7573 19.2052 14.0933C19.2637 14.2499 19.2721 14.4208 19.2292 14.5823C19.1372 14.9289 18.6452 15.1816 17.6613 15.6868ZM19.1651 12.539C19.4964 12.539 19.7651 12.2703 19.7651 11.939C19.7651 11.6076 19.4964 11.339 19.1651 11.339C18.8337 11.339 18.5651 11.6076 18.5651 11.939C18.5651 12.2703 18.8337 12.539 19.1651 12.539ZM79.9159 10.8448C79.4528 10.8259 78.9928 10.8071 78.7051 10.5513C78.6198 10.082 78.6495 9.72777 78.6909 9.23561C78.6955 9.18051 78.7003 9.12368 78.7051 9.06477C78.7165 8.98028 78.7302 8.88887 78.7446 8.79286C78.8301 8.22399 78.9397 7.4939 78.7367 7.08797C78.4362 6.4554 77.519 6.64517 77.2502 7.1196C77.0861 7.52982 77.0349 8.30488 76.9937 8.92973V8.92981C76.9793 9.14803 76.9661 9.34793 76.9497 9.50757C76.9071 9.89137 76.8598 10.2867 76.8114 10.6919C76.6802 11.7895 76.5403 12.9601 76.4594 14.1728C76.4433 14.4307 76.409 14.7196 76.3737 15.0159L76.3737 15.0161C76.3052 15.5921 76.2333 16.1963 76.2855 16.6557C76.3487 17.2408 76.586 17.9208 77.345 17.9999C77.8353 18.0631 79.1163 17.5571 79.4958 17.3673C80.16 17.051 80.7451 16.6557 81.3303 16.118C82.0894 15.3905 82.9275 14.3468 82.8801 13.1132C82.8168 11.8165 81.694 11.1048 80.5712 10.8992C80.3648 10.8631 80.14 10.8539 79.9159 10.8448ZM77.8986 16.3236L78.0409 14.3784C78.0725 13.5877 78.1832 12.6863 78.5628 12.3067C79.6381 12.1328 81.1247 12.5123 81.1879 13.3979C81.2166 13.9277 80.61 14.5482 80.2015 14.9661L80.1429 15.026C80.1215 15.0481 80.1008 15.0694 80.0809 15.09C79.6698 15.5487 78.373 16.3236 77.8986 16.3236ZM71.4917 12.0853C71.1913 11.9746 71.1122 11.7849 71.0648 11.5002C70.9857 10.8676 71.5866 10.5672 72.0927 10.3458C73.089 9.8397 73.8639 9.5076 74.8602 9.729C75.4295 9.93459 75.9672 10.6937 76.0937 11.516C76.2459 12.4016 76.0833 13.3841 75.9556 14.1562C75.9373 14.2665 75.9198 14.3725 75.904 14.4733L75.8701 14.6523L75.87 14.6527C75.7089 15.5043 75.5553 16.3162 75.3188 17.1143C75.2081 17.4306 74.7969 17.9999 74.4174 18.0474C74.1486 18.0948 73.5002 17.9841 73.2313 17.8734C72.2983 17.5097 71.5866 17.225 70.8908 16.4817C70.6061 16.2287 70.2898 15.8966 70.2424 15.5329C70.0685 14.6947 70.4796 14.1412 70.8275 13.7933C71.0489 13.5719 71.6024 13.2398 72.0452 13.0975C72.3779 12.9956 72.8184 12.955 73.2328 12.9168C73.7838 12.8659 74.2888 12.8194 74.4332 12.6388C74.8286 12.1012 74.2909 11.2788 73.9272 11.2314C73.3078 11.3305 72.8307 11.5719 72.4329 11.7732C72.0689 11.9574 71.7713 12.108 71.4917 12.0853ZM73.2155 14.3152C72.6146 14.3468 72.0769 14.5049 71.8397 14.8212C71.8555 15.7385 73.0257 16.0706 73.7848 16.1813C74.2751 16.0547 74.3225 14.9477 74.3225 14.3942C74.1488 14.2473 73.6928 14.2809 73.3743 14.3044L73.3743 14.3044C73.3159 14.3087 73.2621 14.3127 73.2155 14.3152ZM69.9176 8.19433C70.0336 7.27322 70.1756 6.14473 69.2452 6.42385C68.3447 6.70194 68.2759 7.978 68.2123 9.15639C68.2 9.38527 68.1878 9.61046 68.1698 9.82394C68.0532 11.2233 67.9194 12.3561 67.7684 13.6344L67.7683 13.635L67.7682 13.6362L67.7673 13.6433L67.7662 13.6529L67.7661 13.6534L67.7655 13.6589C67.7126 14.1067 67.6576 14.5726 67.6005 15.0743C67.5836 15.2364 67.548 15.4576 67.5076 15.7082C67.3589 16.6313 67.146 17.9534 67.5689 18.1897C68.0275 18.4744 68.7075 18.0158 68.8973 17.5097C69.0238 17.1776 69.1819 15.9283 69.2294 15.4697C69.3103 14.5549 69.3985 13.6842 69.4864 12.8171V12.817L69.4864 12.8168L69.4865 12.8165C69.6219 11.4803 69.7565 10.1526 69.8619 8.68531C69.8746 8.53652 69.8956 8.36924 69.9176 8.19448L69.9176 8.19433ZM66.4307 6.42385C67.3612 6.14473 67.2191 7.27322 67.1032 8.19433L67.1031 8.19448C67.0812 8.36924 67.0601 8.53652 67.0475 8.68531C66.942 10.1526 66.8074 11.4803 66.672 12.8165L66.672 12.8168L66.672 12.817V12.8171C66.5841 13.6842 66.4958 14.5549 66.4149 15.4697C66.3675 15.9283 66.2093 17.1776 66.0828 17.5097C65.8931 18.0158 65.213 18.4744 64.7544 18.1897C64.3315 17.9534 64.5445 16.6313 64.6932 15.7082C64.7335 15.4576 64.7692 15.2364 64.786 15.0743C64.8434 14.5706 64.8986 14.1029 64.9517 13.6534L64.9517 13.6529L64.9529 13.6433L64.9537 13.6362L64.9539 13.635L64.9539 13.6344C65.1049 12.3561 65.2387 11.2233 65.3554 9.82394C65.3734 9.61046 65.3855 9.38527 65.3979 9.15639C65.4614 7.978 65.5303 6.70194 66.4307 6.42385ZM64.2519 13.2873C64.1886 11.263 62.6863 9.83972 60.3932 10.2509C59.8871 10.33 59.6341 10.5039 59.2546 10.7886C58.71 11.2185 58.594 11.4017 58.3063 11.856L58.2584 11.9316L58.2108 12.0063C57.515 13.0342 57.341 14.8529 58.1792 16.0073C58.6378 16.4818 59.555 16.9878 60.3616 17.0669C61.3262 17.1776 62.0537 16.9087 62.6547 16.5134C63.6984 15.7543 64.4259 14.5366 64.2519 13.2873ZM61.2472 15.4855C60.2034 15.7543 59.4602 15.1217 59.3336 14.3468C59.1755 13.3505 59.9346 11.8798 60.7886 11.7216C61.8956 11.516 62.8444 12.7021 62.5598 14.0305C62.4174 14.7422 61.7374 15.3431 61.2472 15.4855ZM54.2708 7.79978C55.0299 7.7049 56.3109 7.57838 56.3899 8.35329C56.4532 8.89098 56.0737 9.09656 55.5992 9.23889C55.377 9.29276 55.1892 9.31795 54.9968 9.34378C54.7372 9.37861 54.4692 9.41457 54.0969 9.52355C53.5117 9.69751 52.6577 10.3617 52.3573 11.1682C51.5191 13.4139 51.9619 15.7228 54.9508 15.5488C55.16 15.5401 55.3788 15.4545 55.6046 15.3662C55.7884 15.2943 55.9769 15.2206 56.1685 15.1851C56.643 15.0744 57.1648 15.2325 57.2755 15.5488C57.4337 16.0074 57.0541 16.387 56.6113 16.6558C55.8997 17.067 55.3304 17.2093 54.2234 17.2093C53.2587 17.2093 52.5154 16.8614 51.9619 16.5609C51.1238 16.1023 50.3647 15.1851 50.2856 13.9358C50.0326 10.3301 51.8512 8.7012 52.895 8.19514C53.2903 7.98956 53.8122 7.86304 54.2708 7.79978ZM46.1664 18.2298C46.2387 18.5093 46.3123 18.7935 46.5378 18.9014C47.2811 19.0595 47.7239 18.7274 47.8188 18.0632C47.9304 17.2716 47.9248 16.265 47.919 15.2232V15.2232V15.2232C47.9158 14.6417 47.9125 14.0492 47.9295 13.4771C47.9742 12.8236 48.0392 12.0993 48.1045 11.3728L48.1045 11.3726L48.1045 11.3724V11.3723L48.1045 11.3723C48.1545 10.8154 48.2046 10.2574 48.2458 9.72905C48.2586 9.60438 48.2762 9.46452 48.2949 9.31558C48.4139 8.36873 48.5789 7.05504 47.882 6.94572C47.629 6.86665 47.1071 6.96153 46.9964 7.16712C46.8447 7.50358 46.8195 8.0905 46.7936 8.69709V8.69712C46.7573 9.54457 46.7193 10.4304 46.3322 10.7254C45.3201 10.7254 44.4345 10.8519 43.628 11.2789C42.9005 11.69 42.3944 12.2752 42.0307 12.9868C41.7302 13.5403 41.5563 14.4575 41.7777 15.2799C41.9991 16.0706 42.8372 16.8455 43.5331 17.2251C44.0341 17.486 44.5696 17.5541 45.126 17.6247C45.4125 17.6611 45.7045 17.6982 46.0001 17.7627C46.0782 17.8889 46.1221 18.0585 46.1664 18.2298ZM46.2373 12.6389C46.348 12.971 46.3006 13.8566 46.2531 14.3627C46.239 14.5088 46.2305 14.7013 46.2213 14.9087C46.1997 15.3973 46.1744 15.9687 46.0634 16.2129C45.3201 16.3869 44.1656 15.865 43.707 15.2641C42.9479 14.252 43.7228 12.7021 44.8931 12.5914C45.0959 12.5738 45.2716 12.5463 45.4248 12.5224C45.8211 12.4605 46.0662 12.4222 46.2373 12.6389ZM36.6128 12.0853C36.3124 11.9746 36.2333 11.7849 36.1858 11.5002C36.1068 10.8676 36.7077 10.5672 37.2138 10.3458C38.2101 9.8397 38.985 9.5076 39.9813 9.729C40.5506 9.93459 41.0883 10.6937 41.2148 11.516C41.367 12.4017 41.2044 13.3842 41.0766 14.1563L41.0766 14.1565C41.0584 14.2667 41.0408 14.3726 41.025 14.4733L40.9911 14.6525C40.83 15.5041 40.6764 16.3161 40.4399 17.1143C40.3292 17.4306 39.918 17.9999 39.5385 18.0474C39.2696 18.0948 38.6213 17.9841 38.3524 17.8734C37.4194 17.5097 36.7077 17.225 36.0119 16.4817C35.7272 16.2287 35.4109 15.8966 35.3635 15.5329C35.1895 14.6947 35.6007 14.1412 35.9486 13.7933C36.17 13.5719 36.7235 13.2398 37.1663 13.0975C37.499 12.9956 37.9395 12.955 38.3539 12.9168C38.9049 12.8659 39.4099 12.8194 39.5543 12.6388C39.9497 12.1012 39.412 11.2788 39.0482 11.2314C38.4288 11.3305 37.9518 11.5719 37.554 11.7732C37.19 11.9574 36.8924 12.108 36.6128 12.0853ZM38.3366 14.3152C37.7357 14.3468 37.198 14.5049 36.9608 14.8212C36.9766 15.7385 38.1468 16.0706 38.9059 16.1813C39.3962 16.0547 39.4436 14.9477 39.4436 14.3942C39.2699 14.2473 38.8139 14.2809 38.4954 14.3044L38.4954 14.3044C38.437 14.3087 38.3832 14.3127 38.3366 14.3152ZM31.2525 6.75606C30.6516 6.55047 29.5604 6.43977 29.2125 6.4714C28.7855 6.50303 28.2478 6.66118 28.058 7.08816C27.876 7.47494 27.8822 8.19722 27.8882 8.90182C27.8906 9.17674 27.8929 9.44897 27.884 9.69753C27.8759 9.94124 27.8668 10.1912 27.8574 10.4477C27.8301 11.1898 27.8009 11.9866 27.7892 12.8446C27.7575 13.9832 27.6626 15.1693 27.5678 16.1656C27.5542 16.3147 27.5283 16.479 27.5016 16.6485C27.4036 17.2706 27.2944 17.9639 27.7417 18.2373C28.2952 18.5852 28.9911 18.174 29.165 17.8419C29.3891 17.4116 29.4354 16.656 29.4795 15.9353C29.5132 15.3847 29.5457 14.8544 29.6553 14.5051C29.7976 14.2363 30.4143 13.9358 30.7623 14.0307C30.9831 14.1555 31.1048 14.3794 31.2266 14.6033C31.3053 14.7482 31.3841 14.8931 31.4897 15.0112C31.7863 15.5023 31.9959 15.95 32.2046 16.3956C32.352 16.7105 32.499 17.0243 32.6758 17.3517C32.714 17.4176 32.7545 17.4965 32.7979 17.5812C32.9523 17.8823 33.1441 18.2562 33.4033 18.3796C33.9568 18.6643 34.9056 18.4113 35.0163 17.8261C35.0839 17.4342 34.8165 17.0076 34.5893 16.645C34.5506 16.5834 34.5131 16.5236 34.4786 16.4661C34.1467 15.9221 33.9223 15.5071 33.6863 15.0707C33.5175 14.7586 33.3428 14.4355 33.1186 14.0465C33.0715 13.9641 33.0069 13.8651 32.9368 13.7577C32.7245 13.4326 32.4622 13.031 32.486 12.7813C32.4968 12.5986 32.7707 12.4304 33.0046 12.2868C33.1147 12.2192 33.216 12.157 33.2767 12.1013C33.7512 11.6743 34.447 10.8994 34.2256 9.31799C33.9926 7.64307 32.7535 7.24243 31.5585 6.85602C31.456 6.82286 31.3537 6.78981 31.2525 6.75606ZM31.3583 11.3995C31.2515 11.4595 31.1547 11.514 31.0786 11.5636C31.0251 11.6018 30.9709 11.6414 30.9161 11.6814C30.5171 11.973 30.0844 12.2892 29.6394 12.2753C29.6363 12.2268 29.6329 12.1761 29.6294 12.1235C29.563 11.1285 29.4497 9.42925 29.7501 8.54309C30.1613 8.41657 31.5055 8.5589 31.9167 8.90682C32.3911 9.31799 32.5018 9.96638 32.407 10.4408C32.3069 10.866 31.7619 11.1725 31.3583 11.3995Z" fill="white"/>
</svg>
