<svg width="304" height="305" viewBox="0 0 304 305" fill="none" xmlns="http://www.w3.org/2000/svg">
<mask id="path-1-inside-1_655_654" fill="white">
<path d="M152.009 304.866C68.1852 304.866 0 236.681 0 152.858C0 69.0341 68.1852 0.866211 152.009 0.866211C235.832 0.866211 304 69.0514 304 152.858C304 236.664 235.815 304.849 152.009 304.849V304.866ZM152.009 20.3797C78.9494 20.3969 19.5307 79.8156 19.5307 152.858C19.5307 225.9 78.9494 285.318 152.009 285.318C225.068 285.318 284.469 225.9 284.469 152.858C284.469 79.8156 225.051 20.3969 152.009 20.3969"/>
<path d="M190.295 151.084C189.175 150.636 189.175 149.74 190.295 149.292C203.229 143.282 210.36 132.793 210.36 116.965C210.36 87.9792 191.191 74.821 159.742 74.821H106.23C104.267 74.821 102.665 76.4227 102.665 78.3861V127.488H128.534V98.4507C128.534 97.7101 129.137 97.1073 129.877 97.1073H159.759C175.587 97.1073 185.18 105.581 185.18 119.187C185.18 132.793 175.587 140.595 159.759 140.595H130.911V162.003H161.085C176.913 162.003 186.73 170.7 186.73 185.185C186.73 199.669 177.137 208.367 161.533 208.367H129.877C129.137 208.367 128.534 207.764 128.534 207.023V175.127H102.665V227.312C102.665 229.275 104.267 230.877 106.23 230.877H161.516C190.502 230.877 212.564 216.84 212.564 187.63C212.564 170.459 205.21 158.197 190.278 151.066"/>
</mask>
<path d="M152.009 304.866V306.866H154.009V304.866H152.009ZM152.009 304.849V302.849H150.009V304.849H152.009ZM190.295 149.292L191.038 151.149L191.088 151.129L191.138 151.106L190.295 149.292ZM102.665 127.488H100.665V129.488H102.665V127.488ZM128.534 127.488V129.488H130.534V127.488H128.534ZM130.911 140.595V138.595H128.911V140.595H130.911ZM130.911 162.003H128.911V164.003H130.911V162.003ZM128.534 175.127H130.534V173.127H128.534V175.127ZM102.665 175.127V173.127H100.665V175.127H102.665ZM152.009 302.866C69.2897 302.866 2 235.577 2 152.858H-2C-2 237.786 67.0806 306.866 152.009 306.866V302.866ZM2 152.858C2 70.139 69.2894 2.86621 152.009 2.86621V-1.13379C67.0809 -1.13379 -2 67.9293 -2 152.858H2ZM152.009 2.86621C234.727 2.86621 302 70.1558 302 152.858H306C306 67.9469 236.937 -1.13379 152.009 -1.13379V2.86621ZM302 152.858C302 235.559 234.71 302.849 152.009 302.849V306.849C236.919 306.849 306 237.768 306 152.858H302ZM150.009 304.849V304.866H154.009V304.849H150.009ZM152.008 18.3797C77.845 18.3972 17.5307 78.7108 17.5307 152.858H21.5307C21.5307 80.9204 80.0538 22.3966 152.009 22.3797L152.008 18.3797ZM17.5307 152.858C17.5307 227.004 77.845 287.318 152.009 287.318V283.318C80.0538 283.318 21.5307 224.795 21.5307 152.858H17.5307ZM152.009 287.318C226.173 287.318 286.469 227.004 286.469 152.858H282.469C282.469 224.795 223.963 283.318 152.009 283.318V287.318ZM286.469 152.858C286.469 78.7111 226.155 18.3969 152.009 18.3969V22.3969C223.946 22.3969 282.469 80.9202 282.469 152.858H286.469ZM191.038 149.227C190.957 149.194 191.029 149.205 191.145 149.333C191.273 149.473 191.455 149.767 191.455 150.188C191.455 150.609 191.273 150.903 191.145 151.044C191.029 151.171 190.957 151.182 191.038 151.149L189.552 147.436C188.703 147.775 187.455 148.625 187.455 150.188C187.455 151.751 188.703 152.601 189.552 152.941L191.038 149.227ZM191.138 151.106C197.888 147.97 203.226 143.613 206.866 137.883C210.505 132.153 212.36 125.186 212.36 116.965H208.36C208.36 124.572 206.649 130.763 203.489 135.738C200.33 140.712 195.637 144.605 189.452 147.479L191.138 151.106ZM212.36 116.965C212.36 101.996 207.384 90.8243 198.086 83.4559C188.87 76.1523 175.699 72.821 159.742 72.821V76.821C175.233 76.821 187.372 80.0689 195.602 86.5909C203.75 93.0481 208.36 102.949 208.36 116.965H212.36ZM159.742 72.821H106.23V76.821H159.742V72.821ZM106.23 72.821C103.162 72.821 100.665 75.3182 100.665 78.3861H104.665C104.665 77.5273 105.372 76.821 106.23 76.821V72.821ZM100.665 78.3861V127.488H104.665V78.3861H100.665ZM102.665 129.488H128.534V125.488H102.665V129.488ZM130.534 127.488V98.4507H126.534V127.488H130.534ZM130.534 98.4507C130.534 98.8147 130.241 99.1073 129.877 99.1073V95.1073C128.032 95.1073 126.534 96.6056 126.534 98.4507H130.534ZM129.877 99.1073H159.759V95.1073H129.877V99.1073ZM159.759 99.1073C167.331 99.1073 173.172 101.133 177.09 104.552C180.975 107.942 183.18 112.883 183.18 119.187H187.18C187.18 111.885 184.588 105.786 179.72 101.538C174.884 97.3184 168.014 95.1073 159.759 95.1073V99.1073ZM183.18 119.187C183.18 125.484 180.982 130.239 177.124 133.457C173.216 136.718 167.37 138.595 159.759 138.595V142.595C167.976 142.595 174.84 140.571 179.686 136.529C184.581 132.445 187.18 126.496 187.18 119.187H183.18ZM159.759 138.595H130.911V142.595H159.759V138.595ZM128.911 140.595V162.003H132.911V140.595H128.911ZM130.911 164.003H161.085V160.003H130.911V164.003ZM161.085 164.003C168.646 164.003 174.533 166.078 178.506 169.65C182.452 173.197 184.73 178.417 184.73 185.185H188.73C188.73 177.468 186.099 171.097 181.18 166.675C176.288 162.277 169.352 160.003 161.085 160.003V164.003ZM184.73 185.185C184.73 191.967 182.498 197.19 178.632 200.733C174.743 204.296 168.974 206.367 161.533 206.367V210.367C169.695 210.367 176.525 208.089 181.334 203.682C186.165 199.255 188.73 192.887 188.73 185.185H184.73ZM161.533 206.367H129.877V210.367H161.533V206.367ZM129.877 206.367C130.241 206.367 130.534 206.659 130.534 207.023H126.534C126.534 208.868 128.032 210.367 129.877 210.367V206.367ZM130.534 207.023V175.127H126.534V207.023H130.534ZM128.534 173.127H102.665V177.127H128.534V173.127ZM100.665 175.127V227.312H104.665V175.127H100.665ZM100.665 227.312C100.665 230.38 103.162 232.877 106.23 232.877V228.877C105.372 228.877 104.665 228.171 104.665 227.312H100.665ZM106.23 232.877H161.516V228.877H106.23V232.877ZM161.516 232.877C176.3 232.877 189.546 229.301 199.143 221.782C208.807 214.21 214.564 202.796 214.564 187.63H210.564C210.564 201.675 205.29 211.884 196.676 218.633C187.995 225.435 175.717 228.877 161.516 228.877V232.877ZM214.564 187.63C214.564 178.757 212.662 171.022 208.73 164.545C204.794 158.062 198.903 152.969 191.14 149.262L189.416 152.871C196.584 156.294 201.836 160.898 205.311 166.621C208.789 172.351 210.564 179.333 210.564 187.63H214.564Z" fill="#7FA3E4" mask="url(#path-1-inside-1_655_654)"/>
</svg>
