<svg xmlns="http://www.w3.org/2000/svg" width="300" height="43" viewBox="0 0 300 43" fill="none"><path d="M1.36328 6.81497C1.36328 9.83247 3.80828 12.2775 6.82578 12.2775H38.7908C41.8083 12.2775 44.2533 9.83247 44.2533 6.81497V1.15247H1.36328V6.81497Z" fill="white"></path><path d="M27.8688 16.4125H17.7438C14.7263 16.4125 12.2812 18.8575 12.2812 21.875V27.5375H33.3337V21.875C33.3337 18.8575 30.8887 16.4125 27.8712 16.4125H27.8688Z" fill="white"></path><path d="M22.8088 41.63C25.758 41.63 28.1487 39.2392 28.1487 36.29C28.1487 33.3408 25.758 30.95 22.8088 30.95C19.8595 30.95 17.4688 33.3408 17.4688 36.29C17.4688 39.2392 19.8595 41.63 22.8088 41.63Z" fill="white"></path><path d="M76.6625 18.9125H62.715V6.92749H57.8125V36.345H62.715V23.27H76.6625V36.345H81.565V6.92749H76.6625V18.9125Z" fill="white"></path><path d="M190.81 15.3725C189.345 14.5375 187.692 14.12 185.852 14.12C183.867 14.12 182.105 14.58 180.567 15.5C179.03 16.42 177.825 17.7225 176.952 19.405C176.08 21.0875 175.645 23.08 175.645 25.38C175.645 27.68 176.092 29.72 176.99 31.4275C177.885 33.135 179.115 34.455 180.677 35.3875C182.24 36.32 184.037 36.785 186.07 36.785C187.667 36.785 189.12 36.495 190.427 35.9125C191.735 35.3325 192.837 34.5025 193.732 33.425C194.627 32.3475 195.222 31.0575 195.512 29.5575H190.61C190.342 30.55 189.805 31.3325 188.995 31.9C188.182 32.47 187.197 32.7525 186.035 32.7525C184.437 32.7525 183.122 32.2025 182.095 31.1C181.065 29.9975 180.465 28.48 180.297 26.5425H195.552V24.655C195.552 22.4525 195.127 20.5625 194.282 18.99C193.435 17.4175 192.277 16.2125 190.812 15.375L190.81 15.3725ZM180.442 23.09C180.757 21.5175 181.392 20.2925 182.35 19.4225C183.307 18.55 184.475 18.115 185.855 18.115C187.235 18.115 188.342 18.545 189.25 19.405C190.157 20.265 190.707 21.4925 190.902 23.0925H180.442V23.09Z" fill="white"></path><path d="M250.556 15.3725C249.091 14.5375 247.438 14.12 245.598 14.12C243.613 14.12 241.851 14.58 240.313 15.5C238.776 16.42 237.571 17.7225 236.698 19.405C235.826 21.0875 235.391 23.08 235.391 25.38C235.391 27.68 235.838 29.72 236.736 31.4275C237.631 33.135 238.861 34.455 240.423 35.3875C241.986 36.32 243.783 36.785 245.816 36.785C247.413 36.785 248.866 36.495 250.173 35.9125C251.481 35.3325 252.583 34.5025 253.478 33.425C254.373 32.3475 254.968 31.0575 255.258 29.5575H250.356C250.088 30.55 249.551 31.3325 248.741 31.9C247.928 32.47 246.943 32.7525 245.781 32.7525C244.183 32.7525 242.868 32.2025 241.841 31.1C240.811 29.9975 240.211 28.48 240.043 26.5425H255.298V24.655C255.298 22.4525 254.873 20.5625 254.028 18.99C253.181 17.4175 252.023 16.2125 250.558 15.375L250.556 15.3725ZM240.186 23.09C240.501 21.5175 241.136 20.2925 242.093 19.4225C243.051 18.55 244.218 18.115 245.598 18.115C246.978 18.115 248.086 18.545 248.993 19.405C249.901 20.265 250.451 21.4925 250.646 23.0925H240.186V23.09Z" fill="white"></path><path d="M228.901 15.26C227.724 14.4975 226.359 14.3325 224.811 14.3325H218.649V6.92249H213.934V36.3475H218.649V18.5825H223.244C224.714 18.605 225.861 18.975 226.686 19.9075C227.531 20.865 227.954 22.215 227.954 23.9575V36.345H232.669V23.1225C232.669 21.355 232.336 19.7925 231.669 18.435C231.001 17.08 230.079 16.02 228.901 15.2575V15.26Z" fill="white"></path><path d="M198.562 22.395V36.35H203.292V22.7125C203.292 20.435 205.14 18.5875 207.417 18.5875H211.167V14.3375H206.622C202.17 14.3375 198.562 17.945 198.562 22.3975V22.395Z" fill="white"></path><path d="M93.4848 14.1124C91.0548 14.1124 89.0373 14.7299 87.4298 15.9649C85.8223 17.1999 84.8273 18.9199 84.4473 21.1224H89.2323C89.4473 20.1549 89.9223 19.4099 90.6623 18.8874C91.3998 18.3674 92.3298 18.1074 93.4473 18.1074C94.7799 18.1074 95.8223 18.4899 96.5723 19.2524C97.3223 20.0149 97.6973 21.0874 97.6973 22.4674V23.4849H91.9473C89.4473 23.4849 87.5123 24.0599 86.1448 25.2099C84.7748 26.3599 84.0898 27.9774 84.0898 30.0599C84.0898 32.1424 84.7573 33.6574 86.0898 34.8924C87.4248 36.1274 89.0348 36.4999 91.9273 36.4999C95.6673 36.4999 97.8074 34.7149 97.8074 34.7149V36.3474H102.2V22.5424C102.2 19.8549 101.432 17.7774 99.8973 16.3124C98.3623 14.8474 96.2248 14.1149 93.4848 14.1149V14.1124ZM97.8074 30.8849C97.8074 30.8849 96.3198 32.7149 92.3723 32.7149C91.3923 32.7149 90.1873 32.5699 89.5748 32.0774C88.8973 31.5324 88.5574 30.7874 88.5574 29.8424C88.5574 28.8974 88.8723 28.2024 89.5048 27.6799C90.0898 27.1974 90.9248 26.9474 91.9898 26.9124V26.8974H97.8074V30.8824V30.8849Z" fill="white"></path><path d="M267.168 14.1124C264.738 14.1124 262.721 14.7299 261.113 15.9649C259.506 17.1999 258.511 18.9199 258.131 21.1224H262.916C263.131 20.1549 263.606 19.4099 264.346 18.8874C265.083 18.3674 266.013 18.1074 267.131 18.1074C268.463 18.1074 269.506 18.4899 270.256 19.2524C271.006 20.0149 271.381 21.0874 271.381 22.4674V23.4849H265.631C263.131 23.4849 261.196 24.0599 259.828 25.2099C258.458 26.3599 257.773 27.9774 257.773 30.0599C257.773 32.1424 258.441 33.6574 259.773 34.8924C261.108 36.1274 262.718 36.4999 265.611 36.4999C269.351 36.4999 271.491 34.7149 271.491 34.7149V36.3474H275.883V22.5424C275.883 19.8549 275.116 17.7774 273.581 16.3124C272.046 14.8474 269.908 14.1149 267.168 14.1149V14.1124ZM271.491 30.8849C271.491 30.8849 270.003 32.7149 266.056 32.7149C265.076 32.7149 263.871 32.5699 263.258 32.0774C262.581 31.5324 262.241 30.7874 262.241 29.8424C262.241 28.8974 262.556 28.2024 263.188 27.6799C263.773 27.1974 264.608 26.9474 265.676 26.9124V26.8974H271.493V30.8824L271.491 30.8849Z" fill="white"></path><path d="M293.92 17.82H293.778C292.588 15.35 290.503 14.115 287.528 14.115C285.743 14.115 284.183 14.5875 282.848 15.5325C281.513 16.4775 280.478 17.7975 279.74 19.4925C279.003 21.1875 278.633 23.175 278.633 25.45C278.633 27.725 279.003 29.6825 279.74 31.39C280.478 33.0975 281.498 34.2125 282.833 35.1575C284.165 36.1025 286.213 36.5025 288 36.5025C292.058 36.5025 293.92 34.6 293.92 34.6V36.35H298.635V6.92249H293.92V17.82ZM293.92 25.1025V30.885C293.92 30.885 292.668 32.71 289.145 32.71C287.363 32.71 285.818 32.2075 284.83 30.9225C283.843 29.64 283.348 27.605 283.348 25.4475C283.348 23.29 283.843 21.5725 284.83 20.29C285.818 19.0075 287.133 18.365 288.778 18.365C290.423 18.365 291.658 18.8925 292.563 19.945C293.468 20.9975 293.92 22.3975 293.92 24.14V25.1025Z" fill="white"></path><path d="M169.091 15.2625C167.868 14.525 166.458 14.155 164.861 14.155C163.383 14.155 162.058 14.495 160.883 15.1725C159.708 15.85 158.746 16.82 157.996 18.0775H157.888C156.091 14.925 152.276 14.155 150.848 14.155H149.313C144.671 14.155 140.453 17.92 140.453 22.5625V36.3475H145.248V23.0175C145.248 20.53 147.266 18.5125 149.753 18.5125C151.181 18.5125 152.296 18.985 153.096 19.93C153.896 20.875 154.293 22.195 154.293 23.89V36.3475H159.088V23.89C159.088 22.195 159.501 20.875 160.323 19.93C161.146 18.985 162.248 18.5125 163.628 18.5125C165.008 18.5125 166.171 18.985 166.971 19.93C167.771 20.875 168.168 22.195 168.168 23.89V36.3475H172.963V23.0175C172.963 21.25 172.623 19.7 171.946 18.3675C171.268 17.035 170.316 16 169.093 15.2625H169.091Z" fill="white"></path><path d="M133.794 15.2625C132.571 14.525 131.161 14.155 129.564 14.155C128.086 14.155 126.761 14.495 125.586 15.1725C124.411 15.85 123.449 16.82 122.699 18.0775H122.591C120.794 14.925 116.979 14.155 115.551 14.155H114.016C109.374 14.155 105.156 17.92 105.156 22.5625V36.3475H109.951V23.0175C109.951 20.53 111.969 18.5125 114.456 18.5125C115.884 18.5125 116.999 18.985 117.799 19.93C118.599 20.875 118.996 22.195 118.996 23.89V36.3475H123.791V23.89C123.791 22.195 124.204 20.875 125.026 19.93C125.849 18.985 126.951 18.5125 128.331 18.5125C129.711 18.5125 130.874 18.985 131.674 19.93C132.474 20.875 132.871 22.195 132.871 23.89V36.3475H137.666V23.0175C137.666 21.25 137.326 19.7 136.649 18.3675C135.971 17.035 135.019 16 133.796 15.2625H133.794Z" fill="white"></path></svg>