<?xml version="1.0" encoding="utf-8"?>
<!-- Generator: Adobe Illustrator 25.0.1, SVG Export Plug-In . SVG Version: 6.00 Build 0)  -->
<svg version="1.1" id="Layer_1" xmlns="http://www.w3.org/2000/svg" xmlns:xlink="http://www.w3.org/1999/xlink" x="0px" y="0px"
	 viewBox="0 0 183.59 50.11" style="enable-background:new 0 0 183.59 50.11;" xml:space="preserve">
<g>
	<path d="M52.81,6.49h29.38v8.61H62.83v5.53h17.53v7.98H62.83v5.79h19.62v8.61H52.81L52.81,6.49L52.81,6.49z"/>
	<path d="M87.62,6.49h9.45L112.1,25.8V6.49h10.02v36.53h-8.87L97.64,22.98v20.04H87.62V6.49z"/>
	<path d="M128.8,6.49h10.18v36.53H128.8V6.49z"/>
	<path d="M158.28,6.23h9.76l15.55,36.79h-10.85l-2.66-6.52h-14.09l-2.61,6.52h-10.65L158.28,6.23z M167.15,28.62l-4.07-10.38
		l-4.12,10.38H167.15z"/>
	<path d="M0,25.2v-0.14C0,11.02,11.01,0,25.95,0c8.47,0,14.46,2.62,19.55,7.02l-7.85,9.43c-3.44-2.89-6.88-4.54-11.63-4.54
		c-6.95,0-12.32,5.85-12.32,13.22v0.14c0,7.78,5.44,13.35,13.08,13.35c3.24,0,5.71-0.69,7.71-2v-5.85h-9.5V21h22.16v21.68
		c-5.09,4.2-12.18,7.43-20.92,7.43C11.22,50.12,0,39.79,0,25.2z"/>
</g>
</svg>
