<?xml version="1.0" encoding="UTF-8"?>
<svg id="Layer_1" data-name="Layer 1" xmlns="http://www.w3.org/2000/svg" viewBox="0 0 935.11 235.59">
  <g>
    <path d="M507.51,104.21l32.38-99.62h20.82l32.38,99.62h-15.01l-29.82-90.9h3.74l-29.47,90.9h-15.01ZM524.33,81.73v-13.56h52.02v13.56h-52.02Z"/>
    <path d="M598.62,104.21v-2.28l42.41-59.49h-38.53v-12.94h61.5v2.35l-42.34,59.43h40.26v12.94h-63.3Z"/>
    <path d="M696.17,106.29c-5.53,0-10.17-1.03-13.91-3.08s-6.56-4.77-8.47-8.16c-1.91-3.39-2.87-7.11-2.87-11.17,0-3.78.67-7.1,2.01-9.96,1.34-2.86,3.32-5.29,5.95-7.3,2.63-2.01,5.86-3.63,9.69-4.88,3.32-.97,7.08-1.82,11.28-2.56,4.2-.74,8.61-1.43,13.25-2.08,4.64-.65,9.24-1.29,13.8-1.94l-5.26,2.91c.09-5.86-1.14-10.2-3.7-13.04-2.56-2.84-6.95-4.25-13.18-4.25-3.92,0-7.52.91-10.79,2.73-3.28,1.82-5.56,4.83-6.85,9.03l-13.49-4.15c1.84-6.41,5.36-11.51,10.55-15.29,5.19-3.78,12.09-5.67,20.72-5.67,6.69,0,12.51,1.14,17.47,3.42,4.96,2.28,8.59,5.89,10.9,10.83,1.2,2.45,1.94,5.03,2.21,7.75.28,2.72.41,5.65.41,8.79v46h-12.8v-17.09l2.49,2.21c-3.09,5.72-7.02,9.97-11.8,12.76s-10.64,4.19-17.61,4.19ZM698.73,94.46c4.1,0,7.63-.73,10.58-2.18,2.95-1.45,5.33-3.31,7.13-5.57,1.8-2.26,2.98-4.61,3.53-7.06.78-2.21,1.23-4.7,1.35-7.47.11-2.77.17-4.98.17-6.64l4.7,1.73c-4.57.69-8.72,1.31-12.45,1.87-3.74.55-7.11,1.1-10.13,1.63-3.02.53-5.71,1.17-8.06,1.9-1.98.69-3.75,1.52-5.29,2.49-1.55.97-2.77,2.14-3.67,3.53-.9,1.38-1.35,3.07-1.35,5.05s.48,3.72,1.45,5.36c.97,1.64,2.44,2.94,4.43,3.91,1.98.97,4.52,1.45,7.61,1.45Z"/>
    <path d="M755.24,104.21V2.52h14.46v101.69h-14.46Z"/>
    <path d="M823.59,106.29c-7.43,0-13.94-1.63-19.54-4.88-5.6-3.25-9.96-7.79-13.08-13.63-3.11-5.83-4.67-12.6-4.67-20.3,0-8.16,1.53-15.24,4.6-21.24,3.07-5.99,7.34-10.63,12.83-13.91,5.49-3.27,11.88-4.91,19.16-4.91s14.09,1.76,19.44,5.29c5.35,3.53,9.35,8.54,12,15.05,2.65,6.5,3.7,14.23,3.15,23.18h-14.46v-5.26c-.09-8.67-1.74-15.08-4.95-19.23-3.21-4.15-8.08-6.23-14.63-6.23-7.24,0-12.68,2.28-16.33,6.85-3.64,4.57-5.46,11.16-5.46,19.79s1.82,14.56,5.46,19.06c3.64,4.5,8.9,6.75,15.77,6.75,4.52,0,8.43-1.03,11.73-3.08,3.3-2.05,5.87-4.99,7.71-8.82l14.18,4.5c-2.91,6.69-7.31,11.86-13.21,15.53-5.9,3.67-12.48,5.5-19.72,5.5ZM796.96,70.94v-11.28h53.34v11.28h-53.34Z"/>
    <path d="M892.71,106.29c-5.53,0-10.17-1.03-13.91-3.08s-6.56-4.77-8.47-8.16c-1.91-3.39-2.87-7.11-2.87-11.17,0-3.78.67-7.1,2.01-9.96,1.34-2.86,3.32-5.29,5.95-7.3,2.63-2.01,5.86-3.63,9.69-4.88,3.32-.97,7.08-1.82,11.28-2.56,4.2-.74,8.61-1.43,13.25-2.08,4.64-.65,9.24-1.29,13.8-1.94l-5.26,2.91c.09-5.86-1.14-10.2-3.7-13.04-2.56-2.84-6.95-4.25-13.18-4.25-3.92,0-7.52.91-10.79,2.73-3.28,1.82-5.56,4.83-6.85,9.03l-13.49-4.15c1.84-6.41,5.36-11.51,10.55-15.29,5.19-3.78,12.09-5.67,20.72-5.67,6.69,0,12.51,1.14,17.47,3.42,4.96,2.28,8.59,5.89,10.9,10.83,1.2,2.45,1.94,5.03,2.21,7.75.28,2.72.41,5.65.41,8.79v46h-12.8v-17.09l2.49,2.21c-3.09,5.72-7.02,9.97-11.8,12.76s-10.64,4.19-17.61,4.19ZM895.27,94.46c4.1,0,7.63-.73,10.58-2.18,2.95-1.45,5.33-3.31,7.13-5.57,1.8-2.26,2.98-4.61,3.53-7.06.78-2.21,1.23-4.7,1.35-7.47.11-2.77.17-4.98.17-6.64l4.7,1.73c-4.57.69-8.72,1.31-12.45,1.87-3.74.55-7.11,1.1-10.13,1.63-3.02.53-5.71,1.17-8.06,1.9-1.98.69-3.75,1.52-5.29,2.49-1.55.97-2.77,2.14-3.67,3.53-.9,1.38-1.35,3.07-1.35,5.05s.48,3.72,1.45,5.36c.97,1.64,2.44,2.94,4.43,3.91,1.98.97,4.52,1.45,7.61,1.45Z"/>
    <path d="M369.43,230.99v-99.62h40.26c.97,0,2.17.03,3.6.1,1.43.07,2.79.22,4.08.45,5.53.88,10.16,2.77,13.87,5.67,3.71,2.91,6.49,6.57,8.34,11,1.84,4.43,2.77,9.32,2.77,14.67,0,7.93-2.03,14.77-6.09,20.51-4.06,5.74-10.15,9.33-18.26,10.76l-5.88.69h-28.23v35.77h-14.46ZM383.89,181.53h25.25c.92,0,1.95-.05,3.08-.14,1.13-.09,2.2-.25,3.22-.48,2.95-.69,5.33-1.97,7.13-3.84,1.8-1.87,3.09-4.02,3.87-6.47.78-2.44,1.18-4.89,1.18-7.33s-.39-4.88-1.18-7.3c-.78-2.42-2.08-4.57-3.87-6.43-1.8-1.87-4.18-3.15-7.13-3.84-1.01-.28-2.09-.46-3.22-.55-1.13-.09-2.16-.14-3.08-.14h-25.25v36.53ZM427.68,230.99l-19.65-40.54,14.6-3.74,21.58,44.28h-16.53Z"/>
    <path d="M490.5,233.07c-7.47,0-13.95-1.68-19.44-5.05-5.49-3.37-9.72-8.01-12.69-13.94-2.97-5.93-4.46-12.76-4.46-20.51s1.52-14.65,4.57-20.58c3.04-5.93,7.31-10.54,12.8-13.84,5.49-3.3,11.9-4.95,19.23-4.95s13.95,1.68,19.44,5.05c5.49,3.37,9.73,8,12.73,13.9,3,5.9,4.5,12.71,4.5,20.41s-1.51,14.66-4.53,20.58c-3.02,5.93-7.28,10.56-12.76,13.9-5.49,3.34-11.95,5.02-19.37,5.02ZM490.5,219.44c7.15,0,12.49-2.41,16.02-7.23,3.53-4.82,5.29-11.03,5.29-18.64s-1.79-14.03-5.36-18.71c-3.57-4.68-8.89-7.02-15.95-7.02-4.84,0-8.83,1.1-11.97,3.29-3.14,2.19-5.47,5.21-6.99,9.06-1.52,3.85-2.28,8.31-2.28,13.39,0,7.84,1.8,14.11,5.4,18.82,3.6,4.7,8.88,7.06,15.84,7.06Z"/>
    <path d="M540.93,230.99v-99.62h14.53v45.87h-1.66v53.75h-12.87ZM576.07,233.07c-7.15,0-13.14-1.74-17.99-5.22-4.84-3.48-8.51-8.2-11-14.15-2.49-5.95-3.74-12.66-3.74-20.13s1.23-14.18,3.7-20.13c2.47-5.95,6.11-10.64,10.93-14.08,4.82-3.44,10.76-5.15,17.81-5.15s13.06,1.72,18.16,5.15c5.1,3.44,9.03,8.12,11.8,14.04,2.77,5.93,4.15,12.65,4.15,20.17s-1.37,14.19-4.12,20.17c-2.74,5.97-6.64,10.69-11.69,14.15-5.05,3.46-11.06,5.19-18.02,5.19ZM574.07,219.99c4.61,0,8.43-1.18,11.45-3.53,3.02-2.35,5.28-5.52,6.78-9.51,1.5-3.99,2.25-8.45,2.25-13.39s-.75-9.32-2.25-13.28c-1.5-3.97-3.79-7.13-6.88-9.48-3.09-2.35-7.03-3.53-11.83-3.53-4.52,0-8.24,1.11-11.17,3.32-2.93,2.21-5.1,5.3-6.5,9.27-1.41,3.97-2.11,8.53-2.11,13.7s.69,9.73,2.08,13.7c1.38,3.97,3.57,7.08,6.57,9.34,3,2.26,6.87,3.39,11.62,3.39Z"/>
    <path d="M656.18,233.07c-7.47,0-13.95-1.68-19.44-5.05-5.49-3.37-9.72-8.01-12.69-13.94-2.97-5.93-4.46-12.76-4.46-20.51s1.52-14.65,4.57-20.58c3.04-5.93,7.31-10.54,12.8-13.84,5.49-3.3,11.9-4.95,19.23-4.95s13.95,1.68,19.44,5.05c5.49,3.37,9.73,8,12.73,13.9,3,5.9,4.5,12.71,4.5,20.41s-1.51,14.66-4.53,20.58c-3.02,5.93-7.28,10.56-12.76,13.9-5.49,3.34-11.95,5.02-19.37,5.02ZM656.18,219.44c7.15,0,12.49-2.41,16.02-7.23,3.53-4.82,5.29-11.03,5.29-18.64s-1.79-14.03-5.36-18.71c-3.57-4.68-8.89-7.02-15.95-7.02-4.84,0-8.83,1.1-11.97,3.29-3.14,2.19-5.47,5.21-6.99,9.06-1.52,3.85-2.28,8.31-2.28,13.39,0,7.84,1.8,14.11,5.4,18.82,3.6,4.7,8.88,7.06,15.84,7.06Z"/>
    <path d="M698.38,167.9v-11.62h51.06v11.62h-51.06ZM749.44,230.99c-4.7.92-9.32,1.31-13.84,1.18-4.52-.14-8.56-1.02-12.11-2.63-3.55-1.61-6.23-4.15-8.03-7.61-1.61-3.09-2.48-6.24-2.59-9.44-.12-3.2-.17-6.84-.17-10.9v-66.07h14.53v65.38c0,3,.03,5.6.1,7.82.07,2.21.54,4.08,1.42,5.6,1.66,2.86,4.3,4.49,7.92,4.88,3.62.39,7.87.24,12.76-.45v12.24Z"/>
    <path d="M765.14,144.03v-14.04h14.46v14.04h-14.46ZM765.14,230.99v-74.71h14.46v74.71h-14.46Z"/>
    <path d="M830.93,233.07c-7.66,0-14.16-1.71-19.51-5.12-5.35-3.41-9.44-8.09-12.28-14.04-2.84-5.95-4.28-12.71-4.32-20.27.05-7.7,1.52-14.52,4.43-20.44,2.91-5.93,7.06-10.57,12.45-13.94,5.4-3.37,11.88-5.05,19.44-5.05,8.16,0,15.14,2.03,20.93,6.09,5.79,4.06,9.6,9.62,11.45,16.67l-14.39,4.15c-1.43-4.2-3.77-7.46-7.02-9.79-3.25-2.33-6.98-3.49-11.17-3.49-4.75,0-8.65,1.12-11.69,3.36-3.04,2.24-5.3,5.29-6.78,9.17-1.48,3.87-2.24,8.3-2.28,13.28.05,7.7,1.81,13.93,5.29,18.68,3.48,4.75,8.64,7.13,15.46,7.13,4.66,0,8.43-1.07,11.31-3.22,2.88-2.14,5.08-5.22,6.61-9.24l14.67,3.46c-2.45,7.29-6.48,12.88-12.11,16.78-5.63,3.9-12.45,5.85-20.48,5.85Z"/>
    <path d="M904.81,233c-9.09,0-16.49-2.01-22.21-6.02-5.72-4.01-9.22-9.66-10.52-16.95l14.8-2.28c.92,3.87,3.06,6.93,6.4,9.17,3.34,2.24,7.51,3.36,12.49,3.36,4.52,0,8.06-.92,10.62-2.77,2.56-1.84,3.84-4.38,3.84-7.61,0-1.89-.45-3.42-1.35-4.6-.9-1.18-2.78-2.29-5.64-3.36-2.86-1.06-7.22-2.37-13.08-3.94-6.41-1.66-11.5-3.45-15.25-5.36-3.76-1.91-6.43-4.15-8.03-6.71s-2.39-5.66-2.39-9.3c0-4.52,1.2-8.46,3.6-11.83,2.4-3.37,5.78-5.97,10.14-7.82,4.36-1.84,9.47-2.77,15.32-2.77s10.81.9,15.29,2.7c4.47,1.8,8.09,4.35,10.86,7.64,2.77,3.3,4.43,7.16,4.98,11.59l-14.81,2.7c-.51-3.6-2.19-6.43-5.05-8.51-2.86-2.08-6.57-3.2-11.14-3.39-4.38-.18-7.93.54-10.65,2.18-2.72,1.64-4.08,3.89-4.08,6.74,0,1.66.52,3.07,1.56,4.22,1.04,1.15,3.06,2.26,6.05,3.32,3,1.06,7.43,2.33,13.28,3.8,6.27,1.61,11.25,3.4,14.94,5.36,3.69,1.96,6.33,4.29,7.92,6.99,1.59,2.7,2.39,5.96,2.39,9.79,0,7.38-2.69,13.17-8.06,17.36-5.37,4.2-12.79,6.3-22.24,6.3Z"/>
  </g>
  <g>
    <path d="M382.63,0h-203.44c-8.87,0-16.06,7.19-16.06,16.06v203.44c0,14.3,17.3,21.47,27.41,11.35L393.98,27.41C404.1,17.3,396.94,0,382.63,0"/>
    <path d="M16.09,176.39h89.7c8.87,0,16.06-7.19,16.06-16.06v-89.7c0-14.3-17.3-21.47-27.41-11.35L4.74,148.98c-10.12,10.12-2.95,27.41,11.35,27.41"/>
  </g>
</svg>