<svg xmlns="http://www.w3.org/2000/svg" fill="none" viewBox="0 0 175 50">
  <path fill="#fff" d="M8.473 49.61a7.917 7.917 0 0 1-3.288-.694 8.757 8.757 0 0 1-2.71-1.93 9.285 9.285 0 0 1-1.822-2.872A9.32 9.32 0 0 1 0 40.624a9.32 9.32 0 0 1 .653-3.49 9.13 9.13 0 0 1 1.822-2.86 8.495 8.495 0 0 1 2.71-1.93 7.798 7.798 0 0 1 3.288-.705c1.395 0 2.68.326 3.854.977a8.77 8.77 0 0 1 2.919 2.6l-1.527.829a6.564 6.564 0 0 0-2.315-1.943 6.222 6.222 0 0 0-2.931-.73 6.12 6.12 0 0 0-2.648.581 6.803 6.803 0 0 0-2.143 1.572 7.372 7.372 0 0 0-1.44 2.314 7.523 7.523 0 0 0-.518 2.785c0 .998.173 1.935.517 2.81a7.556 7.556 0 0 0 1.453 2.314A6.949 6.949 0 0 0 5.85 47.32a6.292 6.292 0 0 0 2.623.557 6.201 6.201 0 0 0 2.968-.73 6.935 6.935 0 0 0 2.278-1.931l1.527.829a8.77 8.77 0 0 1-2.919 2.6c-1.174.643-2.459.964-3.854.964Zm20.349 0a7.917 7.917 0 0 1-3.288-.694 8.66 8.66 0 0 1-2.71-1.943 9.205 9.205 0 0 1-1.835-2.859 9.167 9.167 0 0 1-.665-3.49c0-1.238.222-2.397.665-3.478a9.167 9.167 0 0 1 1.835-2.871 8.494 8.494 0 0 1 2.71-1.93 7.798 7.798 0 0 1 3.288-.706c1.174 0 2.274.235 3.3.705a8.494 8.494 0 0 1 2.71 1.93 8.991 8.991 0 0 1 1.822 2.872 9.081 9.081 0 0 1 .665 3.478 9.167 9.167 0 0 1-.665 3.49 9.027 9.027 0 0 1-1.823 2.86 8.66 8.66 0 0 1-2.709 1.942 7.947 7.947 0 0 1-3.3.694Zm0-1.733a6.15 6.15 0 0 0 2.635-.57 6.927 6.927 0 0 0 2.155-1.584 7.258 7.258 0 0 0 1.453-2.314 7.37 7.37 0 0 0 .53-2.785c0-.99-.177-1.922-.53-2.797a7.25 7.25 0 0 0-1.465-2.314 6.762 6.762 0 0 0-2.155-1.572 6.123 6.123 0 0 0-2.623-.57 6.12 6.12 0 0 0-2.648.582 6.948 6.948 0 0 0-2.155 1.572 7.557 7.557 0 0 0-1.453 2.314 7.522 7.522 0 0 0-.517 2.785c0 .998.176 1.935.53 2.81a7.556 7.556 0 0 0 1.452 2.314 6.95 6.95 0 0 0 2.155 1.572c.821.371 1.7.557 2.636.557Zm14.075 1.411V31.96h1.872l9.1 14.195V31.961h1.725v17.327h-1.86l-9.113-14.196v14.196h-1.724Zm24.759.322c-.92 0-1.81-.145-2.672-.434a6.89 6.89 0 0 1-2.241-1.237 4.38 4.38 0 0 1-1.355-1.919l1.613-.606c.18.511.51.953.986 1.324a5.489 5.489 0 0 0 1.687.842c.648.198 1.31.297 1.982.297a6.05 6.05 0 0 0 2.205-.396c.681-.264 1.231-.632 1.65-1.102.419-.478.628-1.04.628-1.683 0-.652-.218-1.188-.653-1.609-.435-.42-.997-.75-1.687-.99a12.765 12.765 0 0 0-2.143-.57c-1.174-.206-2.229-.486-3.165-.841-.927-.355-1.662-.854-2.204-1.498-.542-.652-.813-1.51-.813-2.574 0-.998.288-1.865.862-2.599.575-.734 1.33-1.304 2.266-1.708a7.676 7.676 0 0 1 3.054-.606c.895 0 1.77.14 2.623.42.854.28 1.605.69 2.254 1.226a4.54 4.54 0 0 1 1.416 1.968l-1.638.594c-.18-.52-.513-.962-.997-1.325a5.004 5.004 0 0 0-1.675-.841 6.674 6.674 0 0 0-1.983-.297 5.687 5.687 0 0 0-2.192.396c-.673.264-1.219.635-1.638 1.114a2.413 2.413 0 0 0-.628 1.658c0 .743.193 1.316.58 1.72.393.396.927.694 1.6.891.673.198 1.433.376 2.278.533 1.1.19 2.123.486 3.067.89.944.397 1.703.93 2.278 1.597.575.66.862 1.477.862 2.451 0 .99-.287 1.856-.862 2.599-.575.734-1.334 1.304-2.278 1.708-.936.404-1.958.606-3.067.606Zm18.777 0c-1.38 0-2.57-.339-3.571-1.015-1.002-.677-1.774-1.585-2.316-2.723-.533-1.147-.8-2.418-.8-3.812v-10.1h1.724v10.1c0 1.056.193 2.025.579 2.908.386.883.948 1.589 1.687 2.117.739.528 1.638.792 2.697.792 1.084 0 1.99-.264 2.721-.792a4.99 4.99 0 0 0 1.675-2.13c.378-.882.567-1.847.567-2.895v-10.1h1.724v10.1c0 1.048-.156 2.03-.468 2.945a7.279 7.279 0 0 1-1.33 2.401 6.002 6.002 0 0 1-2.106 1.622c-.82.388-1.749.581-2.783.581Zm12.603-.322V31.96h1.724v15.594h7.919v1.733h-9.643Zm26.631-17.328v1.733h-5.911v15.595h-1.724V33.693h-5.899v-1.732h13.534Zm5.921 17.328V31.96h1.724v17.327h-1.724Zm8.121 0V31.96h1.872l9.101 14.195V31.961h1.724v17.327h-1.86l-9.113-14.196v14.196h-1.724Zm26.729.322a8.063 8.063 0 0 1-3.325-.694 8.523 8.523 0 0 1-2.697-1.943 9.303 9.303 0 0 1-1.81-2.871 9.323 9.323 0 0 1-.653-3.49c0-1.263.226-2.439.678-3.528a8.926 8.926 0 0 1 1.859-2.846 8.603 8.603 0 0 1 2.71-1.906 7.978 7.978 0 0 1 3.263-.681c1.322 0 2.57.31 3.744.928 1.182.62 2.184 1.498 3.005 2.636l-1.54.842a6.715 6.715 0 0 0-2.377-1.992 6.259 6.259 0 0 0-5.467-.124 6.765 6.765 0 0 0-2.155 1.56 7.436 7.436 0 0 0-1.995 5.135c0 .999.176 1.935.529 2.81a7.55 7.55 0 0 0 1.453 2.314 7 7 0 0 0 2.168 1.56 6.319 6.319 0 0 0 2.635.557c.772 0 1.502-.132 2.192-.396a6.706 6.706 0 0 0 1.909-1.139 6.893 6.893 0 0 0 1.453-1.708 7.129 7.129 0 0 0 .874-2.129h-4.655v-1.572h6.663a8.885 8.885 0 0 1-.715 3.367 9.077 9.077 0 0 1-1.847 2.772 8.634 8.634 0 0 1-2.672 1.87 7.849 7.849 0 0 1-3.227.667ZM0 20.957l3.442-.937c.937 1.747 2.936 2.709 5.645 2.709 3.012 0 4.632-.937 4.632-2.709 0-4.43-12.884-.405-12.884-8.504 0-3.316 3.518-5.543 7.973-5.543 3.518 0 7.062 1.746 8.201 4.43l-3.366.91c-.81-1.417-2.709-2.227-4.759-2.227-2.708 0-4.328.911-4.328 2.506 0 4.404 12.985.329 12.985 8.352 0 3.721-3.266 6.05-8.454 6.05-4.354-.051-7.897-2-9.087-5.037Zm21.438-3.037V9.24h-2.81V6.277h2.81V2.734l3.822-.81v4.353h5.72v2.936h-5.72v8.252c0 3.999 1.038 5.366 4 5.366.38 0 .81-.076 1.543-.177l.507 2.936c-.734.177-1.823.278-2.633.278-4.96.025-7.239-2.05-7.239-7.948ZM33.41 6.276h3.797v3.265c.734-2.05 2.759-3.948 6.783-3.366l-.43 3.62c-4.328-.81-6.379 1.518-6.379 6.251v9.568h-3.796V6.276h.025Zm12.352 10.531V6.277h3.797v10.2c0 4.202 1.519 6.177 5.163 6.177 3.645 0 5.138-2.405 5.138-6.657v-9.72h3.797v19.338H59.86v-3.518c-.835 2.404-3.062 3.898-6.277 3.898-5.34 0-7.82-3.114-7.82-9.188Zm21.008-.862c0-5.847 4-10.023 9.568-10.023 4.86 0 7.77 2.227 8.985 6.631l-3.24.633c-.936-2.733-2.733-4.05-5.568-4.05-3.518 0-5.948 2.76-5.948 6.834 0 4.025 2.43 6.784 5.948 6.784 2.633 0 4.657-1.494 5.518-4.025l3.24.633c-1.038 4.151-4.303 6.632-8.91 6.632-5.619 0-9.593-4.202-9.593-10.049Zm22.476 1.975V9.24h-2.809V6.277h2.81V2.734l3.822-.81v4.353h5.72v2.936h-5.72v8.252c0 3.999 1.037 5.366 3.999 5.366.38 0 .81-.076 1.544-.177l.506 2.936c-.734.177-1.823.278-2.632.278-4.987.025-7.24-2.05-7.24-7.948Zm11.593-1.113V6.277h3.797v10.2c0 4.202 1.518 6.177 5.163 6.177 3.645 0 5.138-2.405 5.138-6.657v-9.72h3.797v19.338h-3.797v-3.518c-.835 2.404-3.063 3.898-6.277 3.898-5.366 0-7.821-3.114-7.821-9.188Zm21.894-10.531h3.796v3.265c.734-2.05 2.759-3.948 6.784-3.366l-.43 3.62c-4.329-.81-6.379 1.518-6.379 6.251v9.568h-3.796V6.276h.025Zm11.187 9.669c0-5.948 4-10.023 9.77-10.023 6.151 0 9.872 4.53 9.391 11.01h-15.364c.127 3.746 2.455 5.872 6.227 5.872 2.708 0 4.454-.91 5.416-2.759l3.468.532c-1.544 3.569-4.607 5.416-8.96 5.416-6.05 0-9.948-3.999-9.948-10.048Zm15.592-1.974c-.278-3.063-2.354-5.037-5.771-5.037-3.24 0-5.518 1.696-5.948 5.037h11.719Zm5.847 1.975c0-6.657 4.05-10.023 8.859-10.023 3.037 0 5.771 1.493 6.859 4.15V0h3.797v25.564h-3.797v-3.62c-1.088 2.608-3.822 4.126-6.834 4.126-4.784-.025-8.884-3.417-8.884-10.124Zm15.819 0c0-4.227-2.43-6.834-6.049-6.834-3.544 0-5.973 2.556-5.973 6.834 0 4.303 2.429 6.86 6.049 6.86 3.569 0 5.973-2.608 5.973-6.86Z"/>
</svg>
